# xmcd
#
# Track frame offsets: 
#        150
#        16370
#        42414
#        67010
#        85377
#        105737
#        122723
#        140463
#        160578
#        173451
#
# Disc length: 2682 seconds
#
# Revision: 1
# Processed by: cddbd v1.5.2PL0 Copyright (c) Steve Scherf et al.
# Submitted via: ExactAudioCopy v0.95b1
#
DISCID=7e0a780a
DTITLE=Justin Rutledge - Man Descending
DYEAR=2008
DGENRE=Country
TTITLE0=St. Peter
TTITLE1=The Wire
TTITLE2=A Penny For The Band
TTITLE3=This Too Shall Pass
TTITLE4=Greenwich Time
TTITLE5=San Sebastian
TTITLE6=Waterloo
TTITLE7=Everyone's In Love
TTITLE8=Honey Houses
TTITLE9=Alberta Breeze
EXTD=
EXTT0=
EXTT1=
EXTT2=
EXTT3=
EXTT4=
EXTT5=
EXTT6=
EXTT7=
EXTT8=
EXTT9=
PLAYORDER=
